<svg viewBox="0 0 240 240" xmlns="http://www.w3.org/2000/svg">
  <rect x="0" y="0" width="240" height="240" fill="#08677B"/>
  <g transform="translate(0,43)">
    <g fill="none" stroke="#FFFFFF" stroke-width="14" stroke-linecap="round" stroke-linejoin="round">
      <rect x="14" y="10" width="212" height="42" rx="21"/>
      <path d="M104,52 L104,76 A10,10 0 0 0 114,86 L126,86 A10,10 0 0 0 136,76 L136,52"/>
      <path d="M14,80 L226,80 L226,130 A14,14 0 0 1 212,144 L28,144 A14,14 0 0 1 14,130 Z"/>
      <line x1="14" y1="118" x2="226" y2="118"/>
    </g>
    <path d="M129,86 L100,118 L115,118 L106,144 L140,109 L123,109 Z" fill="#FFFFFF" stroke="none"/>
  </g>
</svg>
